<svg width="45" height="35" viewBox="0 0 45 35" fill="none" xmlns="http://www.w3.org/2000/svg">
<path d="M0.757041 26.9172C1.01387 27.025 1.36719 27.0734 1.65277 27.0872C1.74085 27.0913 1.71816 27.0034 1.77967 27.0028C1.8998 27.0015 1.99434 27.0656 2.11306 27.0576C2.15247 27.0545 2.13803 26.921 2.1786 26.9206C2.39647 26.918 2.60054 27.0019 2.81927 27.0281C3.90766 27.1596 4.95927 27.3547 6.05302 27.5233C6.41335 27.5791 6.87249 27.5539 7.22913 27.6717C7.27057 27.6855 7.2248 27.7894 7.23121 27.7999C7.33239 27.9607 7.33135 27.7335 7.42225 27.7202C7.78438 27.668 8.14928 27.7214 8.47008 27.8169C8.60398 27.8574 8.43183 28.052 8.58909 27.9525C8.59992 27.9458 8.58399 27.8243 8.62326 27.8179C8.7106 27.8035 8.87216 27.8499 8.94097 27.8509C9.07296 27.8522 9.09392 27.8565 9.2147 27.8729C9.37703 27.8937 9.58715 27.8641 9.76169 27.9137C9.79894 27.9247 9.73293 28.0374 9.79106 28.0656C9.84985 28.094 10.0088 28.1037 10.0679 28.0822C10.127 28.0608 10.1146 27.964 10.127 27.9437C10.2294 27.7719 10.3867 28.045 10.4102 28.0538C10.8351 28.2084 11.2313 28.0996 11.6465 28.1283C11.9612 28.1503 12.2946 28.214 12.6028 28.2152C12.9601 28.2158 13.2671 28.151 13.6224 28.1525C13.6595 28.1524 13.6201 28.2952 13.6657 28.2954C14.1531 28.2969 14.6362 28.2462 15.1102 28.0898C15.1568 28.0741 15.0797 27.9587 15.1249 27.9356C15.411 27.7976 15.8089 27.4784 16.0904 27.9709C16.2871 27.9093 16.523 27.8315 16.6705 27.6802C16.7646 27.5828 16.6213 27.481 16.7724 27.5001C16.8067 27.504 16.7976 27.6294 16.8472 27.6265C17.0561 27.6138 17.2571 27.5121 17.4676 27.5063C17.5104 27.5054 17.5338 27.6095 17.551 27.6239C17.6953 27.739 17.7671 27.4415 17.7927 27.4121C17.9979 27.1891 18.1973 27.168 18.4261 27.0668C18.479 27.0432 18.4723 27.2014 18.5255 27.1831C18.6862 27.1267 18.8439 27.0561 18.9925 26.9703C19.0958 26.9104 19.1951 26.8431 19.2879 26.7684C19.3372 26.7283 19.2327 26.6441 19.2535 26.6193C19.3452 26.5117 19.4727 26.7046 19.5615 26.6048C19.5804 26.5841 19.5206 26.4976 19.5198 26.4853C19.5057 26.2918 19.6777 26.4895 19.6976 26.4857C19.9514 26.4428 19.965 26.1367 20.1895 26.0604C20.2166 26.0514 20.2222 26.1974 20.2947 26.1649C20.7749 25.9508 21.2466 25.644 21.6378 25.291C21.6991 25.236 21.5992 25.1802 21.5974 25.1671C21.5714 24.9612 21.7477 25.1532 21.7751 25.1481C21.988 25.1018 22.0417 24.8186 22.3213 25.0036C23.0131 24.4547 23.8396 24.1136 24.3956 23.3911C24.4028 23.3822 24.3145 23.2907 24.3291 23.2734C24.5044 23.0637 24.5758 23.2521 24.8576 23.3447C24.9287 23.3677 24.8697 23.0549 24.8668 23.0309C24.8563 22.9424 24.7106 22.817 24.7135 22.7963C24.7406 22.6305 25.0874 23.1429 25.2195 23.047C25.223 23.0432 25.1386 22.9638 25.143 22.9466C25.1563 22.893 25.2169 22.9046 25.2269 22.8487C25.2494 22.7197 25.0976 22.4584 25.3171 22.5133C25.3453 22.5206 25.532 22.8191 25.6386 22.7188C25.6812 22.6786 25.8889 22.5297 25.9321 22.4681C25.9753 22.4067 25.8677 22.3465 25.8689 22.3395C25.9311 22.1042 25.8355 22.0991 25.7769 21.8652C25.7183 21.6322 26.018 22.065 26.085 22.0875C26.152 22.1097 26.1875 21.9262 26.1883 21.8712C26.1892 21.8162 26.1112 21.7859 26.1204 21.748C26.1825 21.4983 26.3513 21.8987 26.4558 21.9229C26.7031 21.98 26.5587 21.5969 26.6473 21.4773C26.6714 21.4448 26.7019 21.5341 26.7343 21.5189C26.8621 21.4571 26.8504 21.3104 27.043 21.2977C27.0743 21.2957 27.3214 21.3968 27.2761 21.2113C27.2694 21.1847 27.1821 21.1306 27.2138 21.0764C27.261 20.9954 27.3694 20.8781 27.4629 20.8424C27.5319 20.8161 27.5731 20.9903 27.6087 20.8958C27.6243 20.8537 27.5088 20.8282 27.5432 20.7552C27.5773 20.6826 27.7222 20.5657 27.7784 20.5221C27.8345 20.4788 27.8836 20.5964 27.8933 20.5989C27.9501 20.6122 28.0921 20.5679 28.1011 20.56C28.573 20.1748 28.8554 19.6499 29.3353 19.3006C29.373 19.2729 29.437 19.3881 29.4436 19.3848C29.597 19.3163 29.274 19.1511 29.2776 18.9925C29.4425 19.194 29.4585 19.1152 29.5596 19.0599C29.6085 19.0334 29.6557 19.1269 29.6664 19.1311C29.8293 19.1881 29.7351 19.0057 29.7178 18.9665C29.6546 18.8221 29.8168 18.9104 29.7749 18.8134C29.7333 18.7171 29.573 18.6676 29.6518 18.5956C29.7376 18.6425 29.847 18.8738 29.9332 18.8464C30.2599 18.7431 30.5401 18.2045 30.7003 18.0164C30.8612 17.8284 30.9292 17.7839 31.0064 17.6582C31.1451 17.4308 31.2069 17.625 31.379 17.5671C31.5514 17.5083 31.1779 17.2557 31.1257 17.1726C31.073 17.0899 31.1607 17.1405 31.1426 17.0838C31.1245 17.0272 31.0357 17.0257 31.0673 16.9646C31.0989 16.9038 31.3461 16.8912 31.4345 16.9429C31.6217 17.0528 31.7257 17.2654 31.791 17.0837C31.7946 17.0731 31.6873 17.0166 31.7055 16.9804C31.8522 16.6953 32.0655 16.4577 32.2135 16.1775C32.2336 16.1389 32.1123 16.0793 32.1229 16.0559C32.2326 15.8116 32.3333 16.0262 32.6082 16.0844C32.3465 15.8914 32.2512 15.7017 32.3777 15.5567C32.4536 15.4693 32.5461 15.578 32.6706 15.5875C32.7081 15.5905 32.6896 15.4646 32.7494 15.4972C32.9452 15.6034 33.0768 15.8226 33.1364 15.6071C33.1387 15.5974 33.0306 15.5405 33.0452 15.5128C33.1385 15.3335 33.3258 15.4643 33.4856 15.3199C33.6112 15.2065 33.697 14.8895 33.8004 14.729C33.7451 14.6842 33.7074 14.6448 33.6844 14.6114C33.5905 14.4736 33.7423 14.4353 33.9366 14.5153C34.0069 14.4113 34.1008 14.3143 34.1467 14.1969C34.1625 14.1567 34.0621 14.1147 34.0562 14.1036C33.962 13.9326 34.1885 14.0369 34.2124 14.0209C34.4617 13.8412 34.4457 13.5421 34.7496 13.4127C34.7604 13.4083 34.9803 13.5343 34.8676 13.3699C34.8595 13.359 34.7132 13.3723 34.7774 13.2583C34.842 13.144 34.8584 12.8653 35.0513 12.7723C35.0978 12.7502 35.332 12.7588 35.239 12.6005C35.2262 12.5793 35.1572 12.5537 35.131 12.5187C35.0478 12.4065 35.284 12.5085 35.1282 12.3441C34.9724 12.1799 34.8955 11.9872 35.1122 11.9035C35.1187 11.9007 35.3168 11.9606 35.3411 11.909C35.3795 11.8271 35.4028 11.6935 35.4474 11.6108C35.4689 11.5711 35.5671 11.6548 35.5727 11.6489C35.7763 11.4099 35.7735 11.1638 35.8705 10.8496C35.8879 10.7923 36.1169 10.7097 36.043 10.5472C35.9618 10.3695 35.3478 10.2277 35.6015 10.028C35.7029 9.9478 36.4782 10.1344 36.1945 9.77519C36.4534 9.44252 36.4155 9.01136 36.7137 8.69365C36.7271 8.67929 36.9505 8.7147 36.9654 8.67396C36.9872 8.61323 36.9084 8.53926 36.9211 8.49443C36.9718 8.30584 37.1243 8.18098 37.1894 8.00671C37.2144 7.94063 37.1082 7.9188 37.1383 7.83969C37.1425 7.8287 37.149 7.81938 37.1571 7.81112C37.1976 7.76111 37.3054 7.73219 37.2737 7.62143C37.2453 7.52312 36.9847 7.38366 36.9708 7.27436C37.2473 7.3206 37.256 7.2438 37.3497 7.11691C37.3679 7.09247 37.4602 7.13529 37.4738 7.12439C37.5312 7.07986 37.4578 7.02072 37.5188 6.97954C37.5335 6.96946 37.6284 6.982 37.6457 6.97448C37.7968 6.91066 37.6019 6.7483 37.5683 6.71966C37.4404 6.61072 37.57 6.58846 37.5261 6.51266C37.4827 6.43562 37.3957 6.52497 37.3765 6.43904C37.3664 6.39284 37.3632 6.34404 37.3652 6.29417C37.3705 6.15019 37.421 5.99945 37.4628 5.8749C37.486 5.80805 37.5892 5.89795 37.5953 5.88936C37.6725 5.77287 37.6134 5.58132 37.8749 5.62974C37.3368 5.2392 37.9678 5.58442 37.9508 5.35618C37.9493 5.33827 37.6959 5.15551 37.6232 5.18732C37.5502 5.21978 37.5861 5.35248 37.4815 5.39956C37.4575 5.40812 37.1381 5.39656 37.1136 5.40863C36.9251 5.48914 37.349 5.68821 37.3701 5.70271C37.5963 5.87569 37.2547 5.90362 37.2208 5.94179C37.1287 6.03371 37.1037 6.13762 37.0768 6.23221C37.0597 6.2924 37.0416 6.34958 37.0042 6.4028C36.9422 6.49171 36.64 6.45421 36.6373 6.53351C36.6305 6.79043 37.0436 6.9301 36.6468 7.08373C36.562 7.11448 36.2414 7.01951 36.4737 7.20802C36.4888 7.21842 36.7022 7.37555 36.54 7.40103C36.5196 7.40397 36.4253 7.38122 36.4151 7.38846C36.349 7.43661 36.413 7.49622 36.3581 7.54833C36.3546 7.55162 36.3509 7.55492 36.3472 7.55824L36.388 7.45363C36.3178 7.51831 36.2327 7.59221 36.2201 7.69408C36.2117 7.75971 36.3431 7.90775 36.3712 7.95318C36.4525 8.08272 36.2247 8.07936 36.3443 8.19022C36.4645 8.30159 36.7214 8.30461 36.7569 8.47083C36.5246 8.37252 36.2835 8.27758 36.0486 8.18166C35.9331 8.46201 35.8885 8.7658 35.757 9.03543C35.7405 9.06875 35.6319 8.97916 35.611 9.01344C35.5234 9.15811 35.5524 9.33091 35.4467 9.47283C35.3644 9.58249 35.1735 9.65635 35.0833 9.76671C35.3107 9.96361 35.1355 10.1097 35.0961 10.2548C35.0822 10.3057 35.1534 10.3355 35.1602 10.3797C35.1841 10.5461 34.9821 10.377 34.9295 10.394C34.7047 10.4662 35.2184 10.7303 35.1191 10.899C35.1139 10.9084 34.783 10.8824 34.7583 10.8886C34.598 10.9289 34.8459 10.9529 34.8353 11.024C34.8162 11.1531 34.8412 11.2648 34.6935 11.3512C34.6499 11.3767 34.4337 11.3745 34.525 11.5169C34.5369 11.5356 34.629 11.5791 34.63 11.5896C34.6409 11.7764 34.3592 11.6246 34.2217 11.6486C34.0844 11.6722 34.2079 11.8991 34.2482 11.9561C34.3531 12.1026 34.3374 11.9426 34.3533 11.9473C34.5431 12.0026 34.4636 12.0744 34.4382 12.1494C34.7026 12.318 34.6297 12.4039 34.4105 12.2267C34.3866 12.2072 34.4426 12.1701 34.4382 12.1494C34.1386 12.0524 34.0466 12.1301 34.2227 12.3918C34.3049 12.5147 34.4693 12.5487 34.32 12.6782C34.2521 12.7368 34.088 12.593 33.9982 12.6239C33.7945 12.6927 33.8397 12.9868 33.7125 13.113C33.6667 13.1583 33.6054 13.04 33.5709 13.0684C33.4789 13.1433 33.4923 13.2763 33.3872 13.3422C33.3776 13.3481 33.2932 13.2543 33.2708 13.2818C33.1043 13.4826 33.0228 13.7088 32.8531 13.923C32.8487 13.9284 32.8444 13.9339 32.8399 13.9393C32.7506 14.0489 32.536 14.1986 32.4514 14.3189C32.3052 14.5267 32.2355 14.8812 32.0585 15.0157C31.9436 15.1036 31.8716 14.9982 31.7684 14.9876C31.5693 14.9661 31.6491 15.3149 31.6636 15.3662C31.6641 15.3679 31.7675 15.2966 31.7711 15.3876C31.8439 15.5043 31.6649 15.3656 31.6636 15.3662C31.6732 15.3995 31.53 15.599 31.4797 15.6187C31.4524 15.6294 31.376 15.5394 31.3634 15.5465C31.0663 15.7155 30.8234 15.9316 30.6353 16.2076C30.633 16.2134 30.7338 16.2976 30.7271 16.3102C30.6369 16.4888 30.4361 16.4657 30.2584 16.5116C30.0806 16.5576 30.0164 16.6679 30.1104 16.8926C30.0067 16.9571 29.9564 17.1479 29.9288 17.2602C29.9012 17.3725 29.7122 17.2007 29.7025 17.2031C29.3977 17.2769 29.389 17.4892 29.2029 17.6994C29.1149 17.7995 28.8982 17.954 28.7742 18.0318C28.676 18.093 28.6667 18.1833 28.564 18.2264C28.5502 18.2323 28.4835 18.1392 28.4773 18.139C28.2997 18.1181 28.5291 18.2841 28.5451 18.3369C28.6029 18.5288 28.6276 18.6368 28.4593 18.6755C28.4204 18.6847 28.0772 18.4564 28.0153 18.4809C27.935 18.5134 28.0539 18.5992 27.9671 18.6305C27.9598 18.6333 27.9018 18.5666 27.8653 18.6047C27.6946 18.7806 27.5293 18.9951 27.3312 19.1555C27.3045 19.1776 27.2461 19.0426 27.206 19.0727C27.018 19.2138 26.826 19.3846 26.6932 19.582C26.6608 19.6309 26.751 19.6834 26.7604 19.7136C26.8161 19.8972 26.5698 19.7689 26.5532 19.7764C26.1524 19.9496 26.0496 20.3322 25.6461 20.5115C25.6235 20.5212 25.3134 20.416 25.396 20.6504C25.4015 20.6661 25.4874 20.9049 25.3309 20.8178C25.3212 20.8123 25.2838 20.6842 25.2239 20.7467C25.1641 20.8092 25.0041 20.8279 24.9932 21.0079C24.9897 21.0646 25.0646 21.31 24.8598 21.2245C24.8456 21.2186 24.4485 20.9751 24.5786 21.2512C24.6001 21.2965 24.7979 21.544 24.5937 21.4937C24.5545 21.4837 24.5494 21.3995 24.4694 21.404C24.3465 21.4106 24.288 21.559 24.1028 21.5196C24.0702 21.5126 23.8687 21.3936 23.9038 21.5694C23.9093 21.5969 23.9893 21.6695 23.9641 21.7023C23.8447 21.8585 23.6432 21.9153 23.5287 22.0851C23.488 22.145 23.6145 22.2649 23.5826 22.3431C23.5507 22.4213 23.4586 22.5389 23.3526 22.5171C23.247 22.495 23.1594 22.2249 23.0558 22.2696C22.6085 22.4617 22.3 22.8574 21.9084 23.1343C21.8504 23.1753 21.8482 23.0614 21.7585 23.116C21.428 23.318 20.8174 23.5814 20.6315 23.9278C20.4834 24.2055 20.8385 24.1454 20.6946 24.3067C20.6249 24.3843 20.3731 24.1636 20.3479 24.1665C20.0952 24.1938 20.0238 24.394 19.8181 24.4576C19.7759 24.4705 19.7516 24.3376 19.7164 24.3498C19.5959 24.3902 19.5086 24.5022 19.3969 24.5496C19.3471 24.5704 19.31 24.4792 19.27 24.5089C19.1735 24.5789 19.1013 24.6629 19.0408 24.7973C19.0351 24.8096 19.1545 24.8853 19.078 24.9296C18.9542 25.001 18.8376 25.1613 18.65 25.1495C18.5937 25.1458 18.4936 24.9457 18.4682 25.1302C18.4628 25.1686 18.605 25.3986 18.3948 25.2422C18.3712 25.2249 18.2211 25.132 18.1248 25.1387C18.0786 25.1414 18.0453 25.1684 18.0451 25.2422C18.0451 25.3008 18.0781 25.5277 18.0128 25.5192C18.0037 25.5172 17.9817 25.3953 17.9352 25.4033C17.7724 25.4332 17.623 25.5106 17.4577 25.536C17.4136 25.5424 17.4273 25.4031 17.3636 25.4161C17.1885 25.4517 16.9959 25.5555 16.8458 25.6464C16.7907 25.6801 16.8643 25.7643 16.8636 25.7763C16.8494 25.9732 16.7307 25.7524 16.7034 25.746C16.5318 25.7098 16.4556 25.8525 16.3097 25.8606C16.2701 25.8629 16.2661 25.7423 16.2559 25.7342C16.1537 25.6556 16.2647 25.8443 16.2219 25.8797C16.1015 25.9794 15.9421 26.0078 15.7983 26.0233C15.7451 26.0289 15.7749 25.8833 15.7279 25.8897C15.4501 25.9246 15.17 25.9851 14.903 26.0957C14.8537 26.1166 14.8992 26.2164 14.8916 26.2415C14.8378 26.4175 14.6987 26.2034 14.6714 26.1845C14.544 26.0983 14.5106 26.1946 14.4068 26.1867C13.9014 26.147 13.2805 26.2241 12.7891 26.2516C12.1528 26.2873 11.641 26.3527 11.0255 26.2681C10.986 26.2627 11.0395 26.1278 11.0057 26.1214C10.5726 26.0449 10.14 26.0471 9.69844 25.9446C9.66329 25.9366 9.73272 25.8128 9.67744 25.7955C9.5643 25.7593 9.41434 25.7445 9.28695 25.7679C9.2248 25.779 9.2871 25.9033 9.22469 25.9121C9.07667 25.9325 8.93177 25.9192 8.79384 25.8752C8.7353 25.8561 8.84768 25.7375 8.76997 25.7232C8.23375 25.6213 7.72408 25.5046 7.14794 25.5699C7.10824 25.5743 7.02145 25.8374 6.95159 25.7698C6.96067 25.6938 6.97853 25.6058 6.99193 25.5254C6.22634 25.3279 5.4398 25.2535 4.64854 25.0849C4.61562 25.0778 4.70463 24.949 4.64213 24.9348C4.28447 24.8538 3.91714 24.7245 3.5181 24.7759C3.47759 24.7806 3.43591 25.0342 3.33503 24.9695C3.31743 24.958 3.1589 24.8836 3.12878 24.8188C3.12492 24.8092 3.18428 24.7007 3.13113 24.684C2.81472 24.5867 2.49954 24.5351 2.16438 24.5245C2.11071 24.5232 2.13302 24.6604 2.09448 24.6605C1.81626 24.6588 1.57895 24.497 1.3041 24.5443C1.12132 24.5767 1.12549 24.8054 0.982912 24.9919C0.96279 25.0182 0.859398 24.9958 0.821715 25.1163C0.726787 25.4191 0.687604 25.7678 0.580573 26.0891C0.557675 26.1583 0.439304 26.0458 0.47616 26.2376C0.478906 26.2505 0.564185 26.3335 0.573508 26.3977C0.580109 26.4421 0.516389 26.5579 0.537901 26.6182C0.559424 26.6785 0.625287 26.5847 0.66721 26.6599C0.708864 26.7358 0.646523 26.8703 0.757041 26.9172ZM29.8008 17.7643C29.8204 17.9162 29.4983 17.6036 29.6438 17.6118C29.6512 17.6126 29.7999 17.7567 29.8008 17.7643ZM36.1989 8.90035C36.3308 9.09135 36.0312 9.0495 35.926 8.90957C35.8209 8.76968 36.159 8.84228 36.1989 8.90035ZM36.8478 7.807C36.9301 8.00141 36.3421 7.75749 36.5233 7.67108C36.5337 7.66595 36.8431 7.79562 36.8478 7.807ZM1.36939 25.1573C1.36668 25.1627 1.29303 25.1495 1.29278 25.1433C1.29048 24.9954 1.43759 25.022 1.36939 25.1573ZM37.2397 6.70499C37.3184 6.76143 37.2027 6.87414 37.1042 6.80497C37.0248 6.74929 37.1417 6.63411 37.2397 6.70499ZM26.5137 21.3038C26.5167 21.3099 26.4785 21.3481 26.4558 21.3178C26.3828 21.2204 26.4624 21.2008 26.5137 21.3038ZM38.1076 4.7114C37.9282 4.98737 38.2665 5.43041 38.4033 5.13379C38.4299 5.07898 38.1923 5.13939 38.1986 5.04988C38.213 4.88283 38.5312 5.01023 38.4814 4.78903C38.4729 4.74734 38.1172 4.69395 38.1067 4.71141C38.107 4.7114 38.1073 4.7114 38.1076 4.7114ZM30.1385 18.1876C30.1413 18.1931 30.0918 18.249 30.0864 18.2461C29.9584 18.1718 30.0578 18.0594 30.1385 18.1876ZM24.1613 23.405C24.1655 23.4176 24.029 23.5264 24.0177 23.52C23.8113 23.3795 24.0849 23.1604 24.1613 23.405ZM33.7949 14.7205C33.8038 14.7221 33.8124 14.7234 33.8208 14.7244C33.9663 14.7402 34.0303 14.6706 33.9365 14.5157C33.8951 14.5817 33.8469 14.6436 33.8025 14.7092C33.7999 14.713 33.7974 14.7167 33.7949 14.7205Z" fill="#fff42b"/>
<path d="M44.3818 8.20804C44.3705 8.10775 44.2753 8.023 44.1812 7.97206C44.1518 7.956 44.0894 8.00729 44.066 7.99798C44.0204 7.97972 44.0372 7.9298 43.9868 7.9151C43.9698 7.91042 43.8674 7.98529 43.852 7.97899C43.7675 7.94188 43.761 7.86432 43.7014 7.81255C43.41 7.56144 43.1933 7.27009 42.9643 6.97737C42.8878 6.87894 42.7164 6.80634 42.7005 6.67521C42.6988 6.65984 42.7995 6.61342 42.8061 6.60661C42.9066 6.50047 42.7186 6.62154 42.6786 6.61065C42.5199 6.56657 42.4495 6.46126 42.4345 6.34675C42.4284 6.2979 42.6424 6.23083 42.5125 6.25084C42.5036 6.25212 42.4067 6.31939 42.3897 6.3146C42.3514 6.30374 42.3436 6.24667 42.324 6.23061C42.2864 6.2012 42.2839 6.1943 42.2626 6.15888C42.2326 6.111 42.1493 6.08142 42.1436 6.01671C42.1427 6.00273 42.2559 5.95869 42.264 5.93111C42.272 5.90349 42.2372 5.86214 42.2038 5.86047C42.1704 5.85876 42.0915 5.91149 42.071 5.91931C41.8989 5.98647 42.0895 5.8079 42.0908 5.79746C42.1112 5.61495 41.9243 5.57638 41.8595 5.45956C41.8079 5.366 41.7945 5.24445 41.7411 5.16226C41.6781 5.06666 41.5698 5.00679 41.5237 4.90155C41.5187 4.89048 41.649 4.83366 41.6432 4.82C41.5824 4.67786 41.4898 4.54453 41.3309 4.45677C41.3148 4.44803 41.2163 4.52632 41.1938 4.52124C41.0602 4.49191 40.7683 4.47341 41.2122 4.15959C41.1616 4.11277 41.1063 4.05927 40.9809 4.05906C40.9009 4.06024 40.8014 4.15921 40.8286 4.08998C40.8346 4.07447 40.9445 4.02801 40.9457 4.00917C40.9507 3.9299 40.882 3.8869 40.904 3.80158C40.9087 3.78409 41.0028 3.7347 41.0176 3.72208C41.137 3.61859 40.8872 3.69734 40.8655 3.69675C40.7012 3.68848 40.7174 3.60677 40.6753 3.53995C40.6653 3.52414 40.8003 3.47288 40.7948 3.45456C40.7643 3.35996 40.705 3.28129 40.6055 3.23534C40.5829 3.22504 40.487 3.302 40.4707 3.29989C40.3996 3.2894 40.5935 3.16624 40.5295 3.15458C40.5163 3.152 40.4287 3.20836 40.418 3.21268C40.2502 3.28063 40.4593 3.13472 40.461 3.12633C40.4867 3.01787 40.2323 3.10801 40.2241 3.01928C40.2234 3.00867 40.3479 2.96085 40.339 2.93508C40.2824 2.76596 40.1572 2.6249 39.9744 2.52513C39.9466 2.51031 39.8718 2.57781 39.8605 2.58263C39.6831 2.65724 39.8927 2.5106 39.8964 2.49816C39.92 2.40337 39.7014 2.45599 39.9364 2.25776C39.6921 2.06141 39.6693 1.70634 39.2689 1.61421C39.2641 1.61301 39.1658 1.69161 39.1569 1.68898C39.0454 1.65521 39.2142 1.55546 39.3678 1.36176C39.4063 1.31296 39.1453 1.4465 39.1267 1.45704C39.0556 1.49251 38.9174 1.61948 38.9024 1.6247C38.7841 1.66558 39.277 1.29176 39.2368 1.24136C39.2348 1.24051 39.1513 1.31831 39.1393 1.32138C39.1017 1.33135 39.1268 1.29064 39.0869 1.30379C38.9943 1.3343 38.7594 1.52143 38.8581 1.36846C38.8708 1.34859 39.1421 1.12549 39.0918 1.09419C39.0714 1.08124 39.0058 1.00297 38.9671 0.997211C38.9299 0.99237 38.8652 1.08734 38.8602 1.08921C38.7026 1.14444 38.6809 1.20994 38.5061 1.34941C38.3357 1.49238 38.6934 1.1071 38.7205 1.05274C38.7478 0.998476 38.6246 1.05593 38.5884 1.08212C38.5517 1.10761 38.5187 1.1733 38.4952 1.18553C38.4666 1.20056 38.4539 1.20272 38.4518 1.1951C38.4152 1.17707 38.3953 0.886748 38.3669 0.822301C38.2836 0.634814 38.2992 1.02686 38.2572 1.07213C38.2456 1.08439 38.2425 0.994976 38.2295 0.98863C38.1777 0.964735 38.1694 1.08932 38.0982 0.988109C38.0868 0.971579 38.004 0.747813 38.0052 0.922222C38.0055 0.947347 38.0332 1.04116 38.0172 1.06603C37.9932 1.10335 37.9441 1.13364 37.9067 1.10747C37.879 1.0881 37.8771 0.925684 37.8564 0.980044C37.8473 1.0043 37.8885 1.09195 37.8701 1.12982C37.8518 1.16763 37.789 1.1753 37.7648 1.17671C37.7406 1.17802 37.7304 1.05629 37.7269 1.04862C37.7065 1.00483 37.6493 0.956359 37.6452 0.957324C37.4365 0.983538 37.2938 1.22423 37.0833 1.20432C37.0667 1.20295 37.0474 1.07591 37.0446 1.07442C36.9792 1.03482 37.0996 1.35615 37.0898 1.47568C37.0345 1.2217 37.0239 1.27261 36.9802 1.2539C36.9591 1.24469 36.9449 1.14457 36.9409 1.13496C36.8778 0.993006 36.9063 1.18934 36.9113 1.22969C36.9296 1.37822 36.8683 1.2126 36.8804 1.31192C36.8926 1.41047 36.9551 1.54544 36.9198 1.55237C36.8872 1.46464 36.8542 1.22225 36.8176 1.19083C36.6784 1.07196 36.536 1.3071 36.4609 1.34865C36.3854 1.39008 36.3545 1.38107 36.3167 1.42677C36.2488 1.50949 36.23 1.32726 36.1537 1.26346C36.0771 1.19989 36.2283 1.61806 36.2476 1.71181C36.2672 1.80544 36.2315 1.71364 36.2373 1.7666C36.2431 1.81953 36.281 1.87596 36.2655 1.90109C36.25 1.92616 36.1433 1.78104 36.1067 1.68792C36.0294 1.49051 35.9918 1.27007 35.9568 1.36221C35.9548 1.36765 35.9996 1.47599 35.9904 1.49113C35.9164 1.60767 35.8148 1.64552 35.7406 1.75319C35.7304 1.76817 35.7827 1.88769 35.7773 1.89779C35.7216 2.00334 35.6829 1.7857 35.561 1.56987C35.673 1.8737 35.7103 2.06978 35.65 2.09209C35.6137 2.10567 35.5748 1.96963 35.5187 1.8835C35.5017 1.85754 35.5067 1.95838 35.4805 1.89713C35.3942 1.69705 35.3402 1.45833 35.3067 1.57236C35.3054 1.57769 35.3534 1.68695 35.3459 1.69714C35.2984 1.76356 35.2155 1.55179 35.1373 1.55032C35.0757 1.54926 35.0273 1.71418 34.9743 1.75787C35.1015 2.09872 35.0169 2.04126 34.9054 1.81519C34.8696 1.8396 34.8221 1.84246 34.7967 1.88931C34.7879 1.90536 34.8342 2.0004 34.8367 2.01166C34.8757 2.18792 34.7712 1.96671 34.7592 1.9611C34.6339 1.90991 34.6284 2.11109 34.4738 1.97872C34.4683 1.97392 34.368 1.74188 34.4142 1.9223C34.4176 1.93467 34.4895 2.02949 34.4522 2.05433C34.4146 2.07934 34.3907 2.23585 34.289 2.15174C34.2646 2.13145 34.1493 1.95747 34.1847 2.11671C34.1896 2.13829 34.2222 2.2032 34.2328 2.24252C34.2666 2.36788 34.156 2.13739 34.222 2.34526C34.2707 2.49815 34.2968 2.62869 34.2618 2.6419L34.2746 2.6358C34.2624 2.64131 34.2413 2.63228 34.2089 2.60457C34.2053 2.60156 34.0984 2.429 34.0829 2.44083C34.0584 2.45971 34.0398 2.51748 34.0114 2.53135C33.9976 2.53798 33.9464 2.42277 33.9429 2.42201C33.8181 2.40956 33.8073 2.54373 33.7358 2.64016C33.723 2.65795 33.5871 2.53811 33.6207 2.67522C33.6577 2.82526 34.0046 3.33743 33.8481 3.25838C33.7861 3.2265 33.345 2.57738 33.4902 2.963C33.3201 2.94716 33.3188 3.19065 33.1263 3.14044C33.1177 3.13824 32.9863 2.96249 32.9754 2.97271C32.9594 2.98826 33.0028 3.08148 32.9931 3.09538C32.9539 3.15578 32.8572 3.11298 32.8109 3.15786C32.7932 3.17474 32.8563 3.25984 32.8354 3.27989C32.8145 3.29981 32.7244 3.19217 32.7276 3.26947C32.7302 3.32829 32.8569 3.5844 32.8423 3.63279C32.6915 3.39638 32.6722 3.4154 32.5928 3.37799C32.5775 3.37069 32.5336 3.28303 32.5236 3.27532C32.482 3.24214 32.5116 3.31913 32.4683 3.28176C32.4578 3.27282 32.4064 3.19203 32.3949 3.18016C32.2957 3.07612 32.372 3.28279 32.3854 3.3187C32.4361 3.45527 32.3574 3.35771 32.3678 3.41757C32.3783 3.47737 32.4453 3.51783 32.4406 3.56112C32.431 3.65071 32.3619 3.6765 32.3161 3.71097C32.2975 3.72424 32.2418 3.60817 32.2375 3.60757C32.1803 3.60568 32.2135 3.74588 32.0541 3.54561C32.3817 4.11753 31.9957 3.50718 32.01 3.65456C32.0113 3.6664 32.1737 3.93208 32.2155 3.95958C32.2573 3.98702 32.2308 3.88841 32.293 3.93318C32.3076 3.94365 32.4972 4.16865 32.5111 4.18073C32.6199 4.27503 32.3741 3.88008 32.3621 3.85738C32.2342 3.61186 32.443 3.85136 32.465 3.86308C32.5661 3.91662 32.5711 3.83584 32.649 3.87044C32.6996 3.89264 32.8656 4.1482 32.8809 4.12744C32.9316 4.05868 32.728 3.68444 32.9885 3.9558C33.0442 4.01365 33.2084 4.3038 33.1173 4.05165C33.1115 4.0358 33.0201 3.81019 33.1217 3.92533C33.1345 3.93986 33.1861 4.02209 33.1939 4.02683C33.245 4.05699 33.2194 3.98179 33.2642 3.99738C33.3091 4.013 33.3685 4.04095 33.3798 3.99514C33.3866 3.96769 33.3134 3.80029 33.2984 3.75747C33.2548 3.63442 33.39 3.79668 33.3234 3.65628C33.2566 3.51508 33.1035 3.33254 33.0899 3.22304C33.2238 3.43675 33.363 3.655 33.4985 3.86945C33.5776 3.81019 33.6177 3.69012 33.7078 3.64882C33.7191 3.6439 33.7784 3.76645 33.7923 3.76421C33.8503 3.75442 33.8417 3.6469 33.9101 3.65108C33.9634 3.65472 34.0774 3.75415 34.1343 3.76281C34.0127 3.49963 34.1206 3.55024 34.1495 3.5033C34.1597 3.48695 34.1205 3.4206 34.1186 3.39269C34.1128 3.28901 34.22 3.5214 34.2507 3.55013C34.3811 3.67312 34.1016 3.16805 34.1651 3.14892C34.1686 3.14761 34.3536 3.39684 34.3674 3.4111C34.4588 3.50343 34.3209 3.31445 34.3296 3.28375C34.3451 3.22786 34.3357 3.14933 34.4201 3.20634C34.4453 3.22312 34.5639 3.37723 34.518 3.23376C34.5121 3.21494 34.463 3.12585 34.4627 3.11925C34.4626 3.0515 34.5171 3.12818 34.5764 3.21785L34.5254 3.24228C34.5605 3.30316 34.5976 3.36966 34.6253 3.40422C34.6953 3.49171 34.6494 3.27125 34.6332 3.20902C34.5911 3.04813 34.588 3.15196 34.5804 3.13767C34.4897 2.96764 34.5344 2.98432 34.5519 2.9592C34.432 2.66969 34.4737 2.67235 34.5706 2.93427C34.5812 2.96289 34.5511 2.94398 34.5519 2.9592C34.694 3.23275 34.7443 3.25411 34.674 2.97207C34.641 2.83993 34.5622 2.70266 34.6432 2.73114C34.68 2.74398 34.7521 2.94761 34.7978 2.99238C34.9014 3.09483 34.895 2.88033 34.9619 2.88784C34.9862 2.89059 35.0103 3.00807 35.0283 3.01377C35.0761 3.02931 35.0756 2.93429 35.1284 2.96248C35.1332 2.96518 35.17 3.0835 35.1818 3.08062C35.272 3.06103 35.3182 2.95884 35.4071 2.9236C35.4503 2.90649 35.5508 2.94249 35.5913 2.91351C35.6609 2.86409 35.6989 2.66052 35.781 2.67872C35.8342 2.69017 35.864 2.81063 35.9096 2.88414C35.9973 3.02686 35.9687 2.72821 35.9634 2.68227C35.9633 2.68074 35.9162 2.66561 35.9165 2.59866C35.8868 2.46917 35.9629 2.68186 35.9634 2.68227C35.9599 2.65259 36.0272 2.60104 36.0497 2.61868C36.0619 2.62832 36.0933 2.74128 36.0989 2.74421C36.2319 2.81149 36.3406 2.80872 36.4272 2.72539C36.4283 2.72258 36.3877 2.59796 36.3908 2.59291C36.434 2.51906 36.5183 2.66132 36.5936 2.73845C36.6691 2.81553 36.6982 2.77409 36.6661 2.54937C36.711 2.56605 36.7377 2.45536 36.7528 2.38862C36.768 2.32186 36.8395 2.56674 36.8435 2.57087C36.97 2.70373 36.9801 2.54996 37.0624 2.50519C37.1014 2.48349 37.1933 2.49845 37.245 2.51451C37.2859 2.52759 37.2933 2.46428 37.3351 2.49354C37.3407 2.49744 37.3627 2.60896 37.3651 2.61288C37.433 2.73636 37.3511 2.47048 37.3472 2.42043C37.333 2.23847 37.3288 2.14075 37.3958 2.21229C37.4114 2.22861 37.5326 2.61093 37.557 2.62937C37.5889 2.65255 37.5478 2.51494 37.5822 2.5428C37.5851 2.54506 37.6039 2.63141 37.6194 2.62396C37.6918 2.59049 37.7644 2.5223 37.8457 2.51466C37.8568 2.51329 37.8711 2.65349 37.8873 2.6538C37.9635 2.65517 38.0419 2.63455 38.101 2.55672C38.1155 2.53713 38.0865 2.44268 38.0849 2.41331C38.0765 2.23546 38.1566 2.48133 38.1627 2.48519C38.3145 2.5829 38.3762 2.33735 38.5273 2.42587C38.536 2.43108 38.6313 2.69458 38.6218 2.45791C38.6216 2.45327 38.6206 2.42904 38.6205 2.40122L37.7073 2.16188C37.7489 2.11045 37.8076 2.04742 37.738 2.14077C37.7316 2.14884 37.6505 2.24288 37.6632 2.2369C37.677 2.23199 37.6285 2.29953 37.7327 2.21052C37.7645 2.18141 37.9452 2.02162 37.8228 2.17066C37.816 2.18277 37.5166 2.49687 37.7443 2.30287C37.7818 2.27103 38.015 2.05689 37.9132 2.1866C37.8931 2.21143 37.8338 2.25082 37.8097 2.29019C37.7723 2.35071 37.8558 2.31827 37.765 2.43026C37.7493 2.45052 37.5934 2.59943 37.732 2.5121C37.7538 2.49858 37.8338 2.42927 37.849 2.42965C37.9237 2.43326 37.8968 2.51539 37.9885 2.51779C38.0202 2.51781 38.1534 2.41048 38.2025 2.40056C38.2516 2.39051 38.313 2.40143 38.2623 2.46537C38.2106 2.5279 37.9731 2.66293 37.973 2.7013C37.9754 2.87226 38.1869 2.90526 38.2909 3.02681C38.3058 3.04405 38.2133 3.07985 38.2295 3.10914C38.2917 3.22193 38.3251 3.45288 38.5605 3.44355C38.7501 3.43761 38.7987 3.2729 38.893 3.29935C38.9389 3.31349 38.6839 3.50373 38.6796 3.51603C38.6317 3.63365 38.782 3.6126 38.7807 3.6953C38.7803 3.71218 38.6625 3.76499 38.6634 3.77863C38.6653 3.82577 38.7372 3.83543 38.7491 3.8765C38.7541 3.89509 38.6678 3.94147 38.683 3.95252C38.7186 3.98006 38.7721 3.99007 38.8708 3.97729C38.8799 3.97616 38.9733 3.89431 38.992 3.91761C39.0221 3.9555 39.1309 3.96277 39.0787 4.05949C39.0627 4.08814 38.8697 4.20156 39.0212 4.15486C39.0529 4.14508 39.2812 4.00279 39.1002 4.15406C39.0702 4.17924 38.8329 4.39516 39.0253 4.32481C39.076 4.30626 39.2785 4.21719 39.2587 4.25216C39.2553 4.25731 39.1454 4.30743 39.1436 4.32797C39.14 4.4006 39.1804 4.44548 39.1774 4.51622C39.1764 4.53522 39.0565 4.57617 39.0584 4.60251C39.0632 4.67455 39.1335 4.73391 39.1988 4.77013C39.223 4.78315 39.3047 4.71827 39.3153 4.7142C39.4875 4.64784 39.2813 4.7836 39.2733 4.79862C39.2266 4.89051 39.3489 4.87175 39.3489 4.93381C39.3491 4.9508 39.2417 4.99944 39.2341 5.00718C39.1602 5.0844 39.3324 4.96053 39.3623 4.96613C39.4474 4.98279 39.4673 5.03718 39.4808 5.09163C39.4855 5.11166 39.356 5.15922 39.3617 5.17643C39.3922 5.2783 39.4619 5.37546 39.5757 5.42455C39.5976 5.43427 39.6831 5.37231 39.7059 5.36406C39.8655 5.30603 39.6864 5.45378 39.6721 5.4727C39.6065 5.55892 39.6956 5.52819 39.6994 5.57026C39.717 5.77755 39.8813 5.94505 40.0006 6.08061C40.1534 6.25372 40.3297 6.36456 40.4125 6.56602C40.418 6.57897 40.2894 6.63468 40.2925 6.64672C40.3406 6.80169 40.4601 6.90394 40.5009 7.0598C40.5045 7.07247 40.38 7.12079 40.3819 7.1433C40.3849 7.18992 40.4174 7.23344 40.4754 7.25072C40.5034 7.25927 40.5887 7.17921 40.6149 7.18896C40.677 7.21284 40.7086 7.25015 40.7143 7.30389C40.7163 7.32666 40.5829 7.36503 40.5947 7.38951C40.6726 7.55655 40.7467 7.73721 40.989 7.81206C41.0057 7.81747 41.2513 7.69344 41.2187 7.74317C41.1531 7.78214 41.0746 7.82575 41.0039 7.86626C41.1008 8.13015 41.3117 8.31266 41.4611 8.55023C41.4674 8.56025 41.3303 8.61341 41.3418 8.63317C41.4072 8.74593 41.431 8.87135 41.6225 8.91752C41.6413 8.92215 41.8617 8.79131 41.8469 8.84426C41.8441 8.85368 41.843 8.92181 41.8019 8.96232C41.7956 8.96822 41.6859 9.01709 41.6921 9.03545C41.7315 9.14314 41.8089 9.22578 41.9257 9.28501C41.9447 9.2944 42.0468 9.21605 42.0613 9.2222C42.1634 9.26632 42.1262 9.39834 42.2692 9.4172C42.3654 9.42964 42.5471 9.3036 42.7513 9.22475C42.7801 9.21363 42.8019 9.24265 42.9129 9.18278C43.1919 9.03229 43.4865 8.84772 43.785 8.6891C43.8492 8.6549 43.8043 8.73527 43.9439 8.62452C43.9532 8.61702 43.9872 8.55805 44.0351 8.52146C44.0682 8.49612 44.1854 8.44296 44.2255 8.40656C44.2656 8.37019 44.1653 8.41094 44.2096 8.36309C44.2546 8.3149 44.3863 8.25143 44.3818 8.20804ZM36.8235 2.09005C36.8215 1.96384 36.9403 2.39648 36.8816 2.301C36.8787 2.29587 36.8235 2.09626 36.8235 2.09005ZM33.4414 3.40149C33.3732 3.21137 33.5476 3.44595 33.6026 3.5913C33.6578 3.73639 33.4622 3.45905 33.4414 3.40149ZM33.0086 3.49879C32.9664 3.34118 33.3091 3.87722 33.1983 3.7948C33.192 3.79019 33.011 3.50795 33.0086 3.49879ZM42.7359 9.07062C42.7413 9.06808 42.7588 9.08756 42.754 9.09098C42.6362 9.17236 42.6012 9.13336 42.7359 9.07062ZM32.5702 3.58918C32.5367 3.50852 32.6261 3.56946 32.6678 3.66972C32.7014 3.75035 32.612 3.68948 32.5702 3.58918ZM38.2899 1.28867C38.2893 1.28199 38.3062 1.27325 38.3117 1.31065C38.3292 1.43109 38.2993 1.40101 38.2899 1.28867ZM31.9642 3.96811C32.0402 3.89087 31.8103 3.41395 31.7454 3.52609C31.7336 3.54639 31.8738 3.64282 31.877 3.69704C31.8827 3.79594 31.6774 3.53566 31.7312 3.71124C31.7411 3.74332 31.9605 3.97349 31.9648 3.96863C31.9646 3.96845 31.9644 3.96828 31.9642 3.96811ZM36.7023 1.56467C36.7014 1.55878 36.7242 1.54692 36.7263 1.55245C36.7756 1.68674 36.73 1.7106 36.7023 1.56467ZM39.2087 1.74146C39.2197 1.73502 39.2649 1.77923 39.2561 1.78713C39.0822 1.94494 38.9934 1.86034 39.2087 1.74146ZM34.9767 1.76732C34.9008 1.64262 34.8631 1.63868 34.9055 1.81497C34.9281 1.79628 34.9536 1.78528 34.9767 1.76732Z" fill="#fff42b"/>
</svg>